<svg version="1" xmlns="http://www.w3.org/2000/svg" width="682.667" height="682.667" viewBox="0 0 512.000000 512.000000"><path d="M148.5.6c-17 4-25.6 8.4-35 17.9-10.1 10.3-12.6 14.2-16.5 25.7-2.1 6.4-2.3 6.6-4.9 5.8-4.1-1.1-15.9-.5-21.7 1.3-16.5 4.9-29.1 17.6-34 34.2-1.6 5.3-1.8 11.1-1.9 49.5 0 24.8.3 45.2.9 47.4 1.2 5.2 7.9 12.1 13.1 13.5 2.2.6 7.4 1.1 11.5 1.1 11.2-.1 18.3-3.9 21.9-12 1.6-3.5 1.7 4.9 1.7 139.4 0 115 .2 144.2 1.3 148.6 4.6 19.1 20.4 34.5 39 38 3.5.7 42.3 1 108.5 1 90.1 0 103.7-.2 109-1.6 16.2-4.2 29-15.9 34.7-31.7 2.7-7.6 2.7-7.9 2.8-36.7l.1-26.5 30.2.2c16.7.1 32.8-.2 35.8-.8 13.9-2.4 25-12 30.5-26.4 1.8-4.8 1.9-8.7 1.9-80.5 0-71-.1-75.8-1.8-81-4.5-13.1-13.7-22.1-26.8-26.1-4.8-1.4-10.2-1.7-33.5-1.8-15.3 0-29.7-.1-32-.1H379v-40.5c0-35.3-.2-40.5-1.5-40.5-1.8 0-1.8-.2-.1-6.7 1.9-7 1.4-23.2-.8-29.8-11-32.4-42.8-49-74.6-38.9-4.3 1.3-10.1 4-12.9 5.8l-5 3.4-3.5-5.3c-11-16.6-29.5-26.6-49.1-26.6-4.5 0-8.7.2-9.5.5-.8.3-2.7.7-4.2 1-1.5.3-4.4 1-6.4 1.8-3.5 1.2-3.6 1.2-7.2-2.7-7.7-8.3-18.1-14.7-29.2-17.9-5.4-1.6-22.6-2.9-26.5-2zm276.7 239.3c4.8 1.6 11.4 9 12.3 13.7.3 2 .6 27 .6 55.5 0 57.2.1 55.5-6.4 61.8-5 5-9 5.7-31.7 5.6h-20.5l-.3-68.4c-.1-40.6.2-68.7.7-69 1.9-1.2 41.5-.4 45.3.8z"/></svg>